<?xml version="1.0" standalone="no"?><!DOCTYPE svg PUBLIC "-//W3C//DTD SVG 1.1//EN" "http://www.w3.org/Graphics/SVG/1.1/DTD/svg11.dtd"><svg class="icon" width="200px" height="200.00px" viewBox="0 0 1024 1024" version="1.1" xmlns="http://www.w3.org/2000/svg"><path fill="#1afa29" d="M825.65 146.34c64.288 0 110.35 70.671 110.35 153.37v507.92l-0.014 2.478C935.076 891.736 889.296 961 825.65 961H154.351l-1.924-0.021C89.145 959.585 44 889.503 44 807.63V299.71l0.014-2.477c0.91-81.628 46.69-150.892 110.337-150.892 16.505 0 29.886 13.394 29.886 29.917 0 16.522-13.38 29.916-29.886 29.916l-0.739 0.012c-24.368 0.787-49.839 40.398-49.839 93.524v507.92l0.008 1.606c0.512 52.85 26.226 91.93 50.57 91.93h671.298l0.739-0.012c24.368-0.787 49.839-40.397 49.839-93.524V299.71l-0.008-1.605c-0.512-52.851-26.226-91.93-50.57-91.93l-0.705-0.009c-16.18-0.375-29.181-13.622-29.181-29.908 0-16.523 13.38-29.917 29.886-29.917zM754.38 638.819c16.506 0 29.887 13.395 29.887 29.917 0 16.287-13.001 29.534-29.181 29.909l-0.706 0.008H225.62c-16.506 0-29.887-13.394-29.887-29.917 0-16.286 13.001-29.533 29.181-29.908l0.706-0.009H754.38z m0-231.28c16.506 0 29.887 13.394 29.887 29.917 0 16.286-13.001 29.533-29.181 29.909l-0.706 0.008H225.62c-16.506 0-29.887-13.395-29.887-29.917 0-16.287 13.001-29.534 29.181-29.909l0.706-0.008H754.38zM281.387 75c16.27-0.089 29.575 12.852 30.04 29.046l0.011 0.706 0.783 141.806c0.09 16.523-13.216 29.99-29.721 30.083-16.27 0.09-29.575-12.852-30.04-29.046l-0.012-0.706-0.783-141.806c-0.09-16.523 13.216-29.99 29.722-30.083z m400.02 0c16.27-0.089 29.576 12.852 30.04 29.046l0.012 0.706 0.783 141.806c0.09 16.523-13.216 29.99-29.722 30.083-16.27 0.09-29.575-12.852-30.039-29.046l-0.012-0.706-0.783-141.806c-0.09-16.523 13.216-29.99 29.722-30.083z m-78 71.34c16.505 0 29.886 13.395 29.886 29.918 0 16.286-13.001 29.533-29.181 29.908l-0.706 0.008H377.351c-16.506 0-29.887-13.394-29.887-29.916 0-16.287 13.001-29.534 29.181-29.91l0.706-0.007h226.055z"  /></svg>