<?xml version="1.0" standalone="no"?><!DOCTYPE svg PUBLIC "-//W3C//DTD SVG 1.1//EN" "http://www.w3.org/Graphics/SVG/1.1/DTD/svg11.dtd"><svg class="icon" width="200px" height="200.00px" viewBox="0 0 1024 1024" version="1.1" xmlns="http://www.w3.org/2000/svg"><path fill="#ff0000" d="M832 128h-128v-32a32 32 0 0 0-64 0V128H352v-32a32 32 0 0 0-64 0V128H192a128 128 0 0 0-128 128v576a128 128 0 0 0 128 128h640a128 128 0 0 0 128-128V256a128 128 0 0 0-128-128z m64 704a64 64 0 0 1-64 64H192a64 64 0 0 1-64-64V256a64 64 0 0 1 64-64h96v32a32 32 0 0 0 64 0V192H640v32a32 32 0 0 0 64 0V192h128a64 64 0 0 1 64 64v576z"  /><path fill="#ff0000" d="M703.232 380.352a25.536 25.536 0 0 0-3.648-11.648 31.488 31.488 0 0 0-3.904-5.76c-1.344-1.472-2.816-2.624-4.352-3.84-1.216-0.896-1.984-2.176-3.328-2.88-0.64-0.32-1.344-0.32-1.92-0.64-1.856-0.896-3.84-1.344-5.824-1.92-2.112-0.576-4.16-1.152-6.4-1.28-0.64 0-1.216-0.384-1.856-0.384h-320a32 32 0 0 0 0 64h264.256l-195.968 336.448c-8.832 15.104-3.584 34.56 11.776 43.328s34.88 3.584 43.776-11.648l224-384.576c0.192-0.32 0.192-0.768 0.384-1.088 1.152-2.176 1.728-4.544 2.368-6.976 0.512-1.92 1.024-3.776 1.152-5.696C703.68 385.152 704 384.64 704 384c0-1.28-0.576-2.368-0.768-3.648z"  /></svg>